<?xml version="1.0" encoding="UTF-8"?>
<svg xmlns="http://www.w3.org/2000/svg" viewBox="0 0 512 512" width="512" height="512" role="img" aria-label="DeskBreak Stretch — Chin tuck start (side)">
  <title>DeskBreak Stretch — Chin tuck start (side)</title>
  <rect width="512" height="512" fill="none"/>
  <ellipse cx="256" cy="470" rx="120" ry="10" fill="#E7E2DA" opacity="0.5"/>
  <g id="chair">
    <rect x="190" y="330" width="150" height="28" rx="10" fill="#E7E2DA" stroke="#1C1917" stroke-width="3.0"/>
    <rect x="180" y="220" width="24" height="120" rx="10" fill="#E7E2DA" stroke="#1C1917" stroke-width="3.0"/>
    <rect x="210" y="358" width="14" height="70" rx="6" fill="#E7E2DA" stroke="#1C1917" stroke-width="3.0"/>
    <rect x="310" y="358" width="14" height="70" rx="6" fill="#E7E2DA" stroke="#1C1917" stroke-width="3.0"/>
  </g>
  <g id="leg">
    <path d="M250,340 L300,380 L320,450" fill="none" stroke="#1C1917" stroke-width="12" stroke-linecap="round" stroke-linejoin="round"/>
    <path d="M250,340 L300,380 L320,450" fill="none" stroke="#D6D0C6" stroke-width="7" stroke-linecap="round" stroke-linejoin="round"/>
    <ellipse cx="320" cy="454" rx="22" ry="8" fill="#1C1917"/>
  </g>
  <g id="torso" transform="rotate(0 240 265.0)">
    <rect x="214.0" y="210" width="52" height="110" rx="18" fill="#FFFFFF" stroke="#1C1917" stroke-width="3.0"/>
  </g>
  <g class="arm">
    <path d="M250,240 L300,280 L330,320" fill="none" stroke="#1C1917" stroke-width="10" stroke-linecap="round" stroke-linejoin="round"/>
    <path d="M250,240 L300,280 L330,320" fill="none" stroke="#F3E6D8" stroke-width="6" stroke-linecap="round" stroke-linejoin="round"/>
    <circle cx="330" cy="320" r="7" fill="#FF5A36" stroke="#1C1917" stroke-width="2"/>
  </g>
  <!-- forward head cue -->
  <circle cx="248" cy="150" r="28" fill="none" stroke="#FF5A36" stroke-width="2" stroke-dasharray="5 4" opacity="0.35"/>
    <line x1="248" y1="110" x2="248" y2="320" stroke="#FF5A36" stroke-width="2" stroke-dasharray="5 5" opacity="0.75"/>
  <g id="head">
    <circle cx="268" cy="155" r="34" fill="#F3E6D8" stroke="#1C1917" stroke-width="3.0"/>
    <path d="M238,149 Q258,115 290,127 Q278,147 248,159 Z" fill="#1C1917"/>
    <path d="M302,157 L316,163 L302,169 Z" fill="#F3E6D8" stroke="#1C1917" stroke-width="2"/>
    <circle cx="276" cy="155" r="3" fill="#1C1917"/>
    <path d="M274,169 Q282,173 290,167" fill="none" stroke="#1C1917" stroke-width="2.5" stroke-linecap="round"/>
  </g>
</svg>
