<?xml version="1.0" encoding="UTF-8"?>
<svg xmlns="http://www.w3.org/2000/svg" viewBox="0 0 512 512" width="512" height="512" role="img" aria-label="DeskBreak Reed — Seated cat-cow, chest open">
  <title>DeskBreak Reed — Seated cat-cow, chest open</title>
  <rect width="512" height="512" fill="none"/>
  <ellipse cx="256" cy="468" rx="110" ry="10" fill="#E7E2DA" opacity="0.55"/>
  <g id="chair">
    <rect x="168" y="300" width="176" height="90" rx="18" fill="#E7E2DA" stroke="#1C1917" stroke-width="3.0"/>
    <rect x="180" y="230" width="22" height="78" rx="8" fill="#E7E2DA" stroke="#1C1917" stroke-width="3.0"/>
    <rect x="310" y="230" width="22" height="78" rx="8" fill="#E7E2DA" stroke="#1C1917" stroke-width="3.0"/>
  </g>
  <g id="legs">
    <path d="M220,320 L200,430" fill="none" stroke="#1C1917" stroke-width="12" stroke-linecap="round"/>
    <path d="M292,320 L312,430" fill="none" stroke="#1C1917" stroke-width="12" stroke-linecap="round"/>
    <path d="M220,320 L200,430" fill="none" stroke="#D6D0C6" stroke-width="7" stroke-linecap="round"/>
    <path d="M292,320 L312,430" fill="none" stroke="#D6D0C6" stroke-width="7" stroke-linecap="round"/>
    <ellipse cx="200" cy="436" rx="18" ry="8" fill="#1C1917"/>
    <ellipse cx="312" cy="436" rx="18" ry="8" fill="#1C1917"/>
  </g>
  <g id="torso" transform="rotate(-12 256 280)">
    <rect x="221.0" y="200" width="70" height="95" rx="22" fill="#FFFFFF" stroke="#1C1917" stroke-width="3.0"/>
  </g>
  <g class="arm">
    <path d="M228,215 Q170,250 150,210" fill="none" stroke="#1C1917" stroke-width="10" stroke-linecap="round"/>
    <path d="M228,215 Q170,250 150,210" fill="none" stroke="#F3E6D8" stroke-width="6" stroke-linecap="round"/>
    <circle cx="150" cy="210" r="7" fill="#FF5A36" stroke="#1C1917" stroke-width="2"/>
  </g>
  <g class="arm">
    <path d="M284,215 Q342,250 362,210" fill="none" stroke="#1C1917" stroke-width="10" stroke-linecap="round"/>
    <path d="M284,215 Q342,250 362,210" fill="none" stroke="#F3E6D8" stroke-width="6" stroke-linecap="round"/>
    <circle cx="362" cy="210" r="7" fill="#FF5A36" stroke="#1C1917" stroke-width="2"/>
  </g>
  <g id="head" transform="rotate(-8 248 142)">
    <circle cx="248" cy="142" r="36" fill="#F3E6D8" stroke="#1C1917" stroke-width="3.0"/>
    <path d="M214,134 Q220,102 248,104 Q276,102 282,134" fill="#1C1917"/>
    <circle cx="236" cy="142" r="3.2" fill="#1C1917"/>
    <circle cx="260" cy="142" r="3.2" fill="#1C1917"/>
    <path d="M238,154 Q248,162 258,154" fill="none" stroke="#1C1917" stroke-width="2.5" stroke-linecap="round"/>
  </g>
</svg>
