<?xml version="1.0" encoding="UTF-8"?>
<svg xmlns="http://www.w3.org/2000/svg" viewBox="0 0 512 512" width="512" height="512" role="img" aria-label="Shoulder rolls standing">
  <title>Shoulder rolls standing</title>
  <rect width="512" height="512" fill="none"/>
  <ellipse cx="256" cy="470" rx="100" ry="10" fill="#DCE3E9" opacity="0.5"/>
  <path d="M240,310 L214,450" fill="none" stroke="#22343B" stroke-width="12" stroke-linecap="round"/>
  <path d="M272,310 L298,450" fill="none" stroke="#22343B" stroke-width="12" stroke-linecap="round"/>
  <path d="M240,310 L214,450" fill="none" stroke="#ACC0D3" stroke-width="7" stroke-linecap="round"/>
  <path d="M272,310 L298,450" fill="none" stroke="#ACC0D3" stroke-width="7" stroke-linecap="round"/>
  <ellipse cx="214" cy="456" rx="18" ry="8" fill="#22343B"/>
  <ellipse cx="298" cy="456" rx="18" ry="8" fill="#22343B"/>
<rect x="228" y="185" width="56" height="110" rx="22" fill="#FFFFFF" stroke="#22343B" stroke-width="3.0"/>
<path d="M210,200 Q230,175 250,198" fill="none" stroke="#22343B" stroke-width="5" stroke-linecap="round"/>
<path d="M302,200 Q282,175 262,198" fill="none" stroke="#22343B" stroke-width="5" stroke-linecap="round"/>
<path d="M200,170 Q256,150 312,170" fill="none" stroke="#BC7085" stroke-width="2" opacity="0.45" stroke-dasharray="4 5"/>
  <path d="M228,220 L185,270 L170,330" fill="none" stroke="#22343B" stroke-width="10" stroke-linecap="round"/>
  <path d="M228,220 L185,270 L170,330" fill="none" stroke="#F0DFC9" stroke-width="6" stroke-linecap="round"/>
  <circle cx="170" cy="330" r="7" fill="#BC7085" stroke="#22343B" stroke-width="2"/>
  <path d="M284,220 L327,270 L342,330" fill="none" stroke="#22343B" stroke-width="10" stroke-linecap="round"/>
  <path d="M284,220 L327,270 L342,330" fill="none" stroke="#F0DFC9" stroke-width="6" stroke-linecap="round"/>
  <circle cx="342" cy="330" r="7" fill="#BC7085" stroke="#22343B" stroke-width="2"/>
  <circle cx="256" cy="142" r="34" fill="#F0DFC9" stroke="#22343B" stroke-width="3.0"/>
  <path d="M224,136 Q236,104 256,106 Q276,104 288,136" fill="#22343B"/>
  <circle cx="245" cy="142" r="3" fill="#22343B"/><circle cx="267" cy="142" r="3" fill="#22343B"/>
  <path d="M246,154 Q256,162 266,154" fill="none" stroke="#22343B" stroke-width="2.5" stroke-linecap="round"/>
</svg>