<?xml version="1.0" encoding="UTF-8"?>
<svg xmlns="http://www.w3.org/2000/svg" viewBox="0 0 512 512" width="512" height="512" role="img" aria-label="DeskBreak Stretch — Stretch idle standing">
  <title>DeskBreak Stretch — Stretch idle standing</title>
  <rect width="512" height="512" fill="none"/>
  <ellipse cx="256" cy="470" rx="100" ry="10" fill="#E7E2DA" opacity="0.5"/>
  <g>
    <path d="M240,320 L214,450" fill="none" stroke="#1C1917" stroke-width="12" stroke-linecap="round"/>
    <path d="M272,320 L298,450" fill="none" stroke="#1C1917" stroke-width="12" stroke-linecap="round"/>
    <path d="M240,320 L214,450" fill="none" stroke="#D6D0C6" stroke-width="7" stroke-linecap="round"/>
    <path d="M272,320 L298,450" fill="none" stroke="#D6D0C6" stroke-width="7" stroke-linecap="round"/>
    <ellipse cx="214" cy="456" rx="18" ry="8" fill="#1C1917"/>
    <ellipse cx="298" cy="456" rx="18" ry="8" fill="#1C1917"/>
  </g>
<rect x="228.0" y="190" width="56" height="110" rx="22" fill="#FFFFFF" stroke="#1C1917" stroke-width="3.0"/>
  <g>
    <path d="M230,215 L200,280 L185,340" fill="none" stroke="#1C1917" stroke-width="10" stroke-linecap="round" stroke-linejoin="round"/>
    <path d="M230,215 L200,280 L185,340" fill="none" stroke="#F3E6D8" stroke-width="6" stroke-linecap="round" stroke-linejoin="round"/>
    <circle cx="185" cy="340" r="7" fill="#FF5A36" stroke="#1C1917" stroke-width="2"/>
  </g>
  <g>
    <path d="M282,215 L312,280 L327,340" fill="none" stroke="#1C1917" stroke-width="10" stroke-linecap="round" stroke-linejoin="round"/>
    <path d="M282,215 L312,280 L327,340" fill="none" stroke="#F3E6D8" stroke-width="6" stroke-linecap="round" stroke-linejoin="round"/>
    <circle cx="327" cy="340" r="7" fill="#FF5A36" stroke="#1C1917" stroke-width="2"/>
  </g>
  <g>
    <circle cx="256" cy="148" r="34" fill="#F3E6D8" stroke="#1C1917" stroke-width="3.0"/>
    <path d="M224,142 Q236,110 256,112 Q276,110 288,142" fill="#1C1917"/>
    <circle cx="245" cy="148" r="3" fill="#1C1917"/>
    <circle cx="267" cy="148" r="3" fill="#1C1917"/>
    <path d="M246,160 Q256,168 266,160" fill="none" stroke="#1C1917" stroke-width="2.5" stroke-linecap="round"/>
  </g>
</svg>
